M48
; DRILL file {KiCad 6.0.11-2627ca5db0~126~ubuntu22.04.1} date sab 1 lug 2023, 17:45:19
; FORMAT={-:-/ absolute / metric / decimal}
; #@! TF.CreationDate,2023-07-01T17:45:19+02:00
; #@! TF.GenerationSoftware,Kicad,Pcbnew,6.0.11-2627ca5db0~126~ubuntu22.04.1
; #@! TF.FileFunction,Plated,1,4,PTH
FMAT,2
METRIC
; #@! TA.AperFunction,Plated,PTH,ViaDrill
T1C0.250
; #@! TA.AperFunction,Plated,PTH,ComponentDrill
T2C0.533
; #@! TA.AperFunction,Plated,PTH,ComponentDrill
T3C0.800
; #@! TA.AperFunction,Plated,PTH,ComponentDrill
T4C0.890
; #@! TA.AperFunction,Plated,PTH,ComponentDrill
T5C0.900
; #@! TA.AperFunction,Plated,PTH,ComponentDrill
T6C1.000
; #@! TA.AperFunction,Plated,PTH,ComponentDrill
T7C1.300
; #@! TA.AperFunction,Plated,PTH,ComponentDrill
T8C1.600
; #@! TA.AperFunction,Plated,PTH,ComponentDrill
T9C1.800
; #@! TA.AperFunction,Plated,PTH,ComponentDrill
T10C1.854
; #@! TA.AperFunction,Plated,PTH,ComponentDrill
T11C1.905
%
G90
G05
T1
X72.0Y-46.552
X72.0Y-51.052
X72.0Y-57.052
X72.0Y-61.552
X72.0Y-66.052
X72.0Y-70.552
X72.0Y-75.052
X72.0Y-79.552
X72.0Y-106.552
X72.0Y-111.052
X72.0Y-115.552
X72.0Y-120.052
X72.0Y-124.552
X72.0Y-129.052
X72.0Y-133.552
X72.0Y-138.052
X75.0Y-48.052
X75.0Y-63.052
X75.0Y-67.552
X75.0Y-72.052
X75.0Y-76.552
X75.0Y-117.052
X75.0Y-121.552
X75.0Y-126.052
X75.0Y-130.552
X76.5Y-42.052
X76.5Y-133.552
X76.5Y-138.052
X77.0Y-74.2
X78.0Y-45.052
X78.0Y-49.552
X78.0Y-58.552
X78.0Y-106.552
X78.0Y-111.052
X78.0Y-118.552
X78.0Y-123.052
X78.6Y-61.8
X79.5Y-52.552
X79.5Y-76.552
X79.5Y-127.552
X79.5Y-132.052
X79.5Y-136.552
X81.0Y-42.052
X81.0Y-46.552
X81.0Y-74.4
X81.0Y-108.052
X81.0Y-117.052
X81.0Y-121.552
X82.5Y-78.052
X82.5Y-129.052
X82.5Y-133.552
X82.5Y-138.052
X84.0Y-45.052
X84.0Y-106.552
X84.0Y-114.052
X84.0Y-118.552
X84.0Y-123.052
X84.6Y-72.4
X84.9Y-77.2
X85.5Y-48.052
X85.5Y-79.552
X86.4Y-70.8
X87.0Y-42.052
X87.0Y-108.052
X87.0Y-112.552
X87.0Y-126.052
X87.0Y-133.552
X87.0Y-138.052
X88.5Y-45.052
X89.5Y-129.4
X90.0Y-48.052
X90.0Y-106.552
X90.0Y-111.052
X91.5Y-42.052
X91.5Y-78.052
X91.5Y-114.052
X91.5Y-126.052
X91.5Y-133.552
X91.5Y-138.052
X92.0Y-72.0
X92.5Y-117.5
X92.9Y-118.3
X93.0Y-45.052
X93.0Y-129.052
X93.3Y-119.1
X93.4Y-132.0
X93.6Y-123.0
X94.5Y-48.052
X94.5Y-112.7
X94.5Y-115.552
X95.4Y-120.0
X96.0Y-42.052
X96.0Y-78.052
X96.0Y-106.552
X96.0Y-133.552
X96.0Y-138.052
X96.1Y-130.887
X97.1Y-113.7
X97.1Y-117.9
X97.5Y-45.052
X97.5Y-82.552
X97.5Y-87.052
X97.5Y-91.552
X97.5Y-96.052
X97.5Y-100.552
X97.8Y-119.3
X99.0Y-48.052
X99.0Y-79.552
X99.0Y-105.052
X99.0Y-109.552
X99.6Y-130.2
X100.0Y-112.2
X100.4Y-130.6
X100.4Y-133.3
X100.5Y-51.052
X100.5Y-138.052
X100.6Y-125.8
X100.8Y-127.8
X101.2Y-131.0
X101.2Y-132.9
X101.5Y-119.8
X102.0Y-103.552
X102.0Y-108.052
X102.3Y-118.4
X103.5Y-46.552
X103.5Y-76.552
X103.5Y-90.052
X103.5Y-97.552
X105.0Y-49.552
X105.0Y-79.552
X105.0Y-105.052
X105.0Y-138.052
X105.5Y-90.0
X106.1Y-48.0
X106.5Y-42.052
X106.5Y-52.552
X106.5Y-114.052
X106.5Y-123.052
X106.9Y-98.5
X107.1Y-82.8
X107.1Y-85.7
X107.1Y-95.9
X107.1Y-101.6
X107.1Y-126.3
X107.3Y-127.8
X107.4Y-78.0
X108.0Y-87.052
X108.0Y-91.552
X108.0Y-129.052
X108.3Y-51.3
X108.4Y-75.9
X109.2Y-76.3
X109.4Y-98.2
X109.5Y-81.052
X109.5Y-102.052
X109.5Y-106.552
X109.5Y-111.052
X109.5Y-115.552
X109.5Y-120.052
X109.5Y-124.552
X109.5Y-138.052
X109.7Y-91.7
X109.8Y-97.4
X110.0Y-76.7
X110.1Y-92.5
X110.2Y-96.6
X110.5Y-93.3
X110.8Y-77.1
X110.9Y-94.1
X111.0Y-88.552
X111.0Y-127.552
X112.3Y-99.8
X112.7Y-99.0
X113.1Y-98.2
X113.5Y-97.4
X113.9Y-96.6
X114.0Y-90.052
X114.0Y-138.052
X114.6Y-103.4
X116.5Y-90.6
X116.7Y-99.4
X117.0Y-102.052
X117.188Y-96.6
X117.688Y-95.9
X118.0Y-99.8
X118.2Y-122.8
X118.288Y-95.1
X118.4Y-99.0
X118.5Y-55.552
X118.5Y-138.052
X118.6Y-104.6
X118.6Y-123.6
X118.7Y-51.4
X118.788Y-94.4
X118.8Y-98.2
X119.0Y-105.4
X119.0Y-124.4
X119.2Y-97.4
X119.4Y-106.2
X119.4Y-125.2
X119.8Y-107.0
X119.8Y-126.0
X120.0Y-42.052
X120.0Y-81.052
X120.0Y-85.552
X120.2Y-107.8
X120.3Y-91.6
X120.5Y-133.8
X120.8Y-120.4
X121.2Y-98.1
X121.2Y-121.2
X121.3Y-134.2
X121.5Y-108.052
X121.5Y-112.552
X121.5Y-117.052
X121.5Y-136.552
X121.6Y-122.0
X121.8Y-91.2
X121.8Y-106.8
X122.1Y-134.6
X122.8Y-90.2
X123.0Y-43.552
X123.0Y-79.552
X123.0Y-84.052
X123.0Y-120.052
X124.3Y-89.2
X124.3Y-100.2
X124.4Y-91.9
X124.5Y-126.052
X124.5Y-138.052
X124.6Y-90.9
X124.8Y-110.0
X125.4Y-99.9
X126.0Y-42.052
X126.0Y-78.052
X126.0Y-82.552
X126.0Y-118.552
X126.1Y-120.8
X126.2Y-46.552
X126.2Y-51.052
X126.2Y-55.552
X126.2Y-60.052
X126.2Y-64.552
X126.5Y-99.6
X127.0Y-102.7
X127.5Y-72.052
X127.5Y-133.1
X128.1Y-98.0
X128.1Y-104.7
X128.4Y-131.7
X128.7Y-86.1
X128.9Y-98.4
X128.9Y-105.1
X129.0Y-43.552
X129.0Y-49.552
X129.0Y-54.052
X129.0Y-61.552
X129.0Y-66.052
X129.0Y-79.552
X129.0Y-138.052
X129.1Y-102.8
X129.1Y-132.2
X129.3Y-130.1
X129.8Y-112.6
X129.9Y-84.7
X130.0Y-128.4
X130.5Y-46.552
X130.5Y-57.052
X130.5Y-69.052
X130.5Y-133.552
X130.6Y-95.5
X130.6Y-129.0
X130.7Y-125.1
X130.8Y-121.9
X131.6Y-114.1
X131.603Y-121.603
X131.9Y-107.9
X132.0Y-51.052
X132.0Y-100.552
X132.0Y-130.552
X132.1Y-63.1
X132.3Y-114.9
X132.4Y-84.7
X132.5Y-66.1
X132.5Y-93.4
X132.8Y-85.5
X132.9Y-57.3
X132.9Y-60.1
X132.9Y-92.6
X133.0Y-98.2
X133.1Y-108.2
X133.1Y-119.8
X133.3Y-61.6
X133.3Y-91.8
X133.5Y-58.552
X133.5Y-138.052
X133.7Y-64.6
X133.7Y-91.0
X133.8Y-98.0
X133.8Y-109.0
X134.4Y-109.9
X134.5Y-111.5
X134.6Y-97.5
X135.0Y-94.552
X135.0Y-129.052
X135.0Y-133.552
X135.5Y-96.5
X135.6Y-80.7
X135.7Y-104.8
X135.9Y-54.5
X136.0Y-111.6
X136.1Y-95.8
X136.4Y-105.4
X136.5Y-42.052
X136.5Y-136.552
X136.6Y-53.4
X136.7Y-89.0
X136.7Y-111.3
X137.0Y-119.6
X137.1Y-81.1
X137.4Y-53.8
X137.4Y-110.9
X137.5Y-89.4
X137.6Y-105.7
X137.7Y-106.7
X137.8Y-121.7
X137.9Y-82.2
X137.9Y-104.8
X138.0Y-45.052
X138.0Y-130.552
X138.2Y-111.3
X138.3Y-89.8
X138.8Y-73.3
X139.0Y-111.9
X139.1Y-84.3
X139.1Y-90.2
X139.5Y-58.552
X139.5Y-138.052
X139.6Y-56.3
X139.8Y-118.1
X140.1Y-114.6
X140.1Y-122.5
X140.6Y-107.6
X141.0Y-51.052
X141.0Y-55.552
X141.0Y-63.052
X141.0Y-67.552
X141.0Y-94.552
X141.0Y-100.552
X141.4Y-108.0
X141.5Y-87.3
X141.7Y-53.7
X141.9Y-81.0
X141.9Y-82.8
X141.9Y-88.8
X142.0Y-56.9
X142.0Y-64.8
X142.0Y-69.0
X142.1Y-105.0
X142.2Y-108.4
X142.3Y-89.6
X142.5Y-46.552
X142.5Y-70.552
X142.7Y-80.6
X142.7Y-90.4
X143.1Y-82.0
X143.1Y-91.2
X143.1Y-131.1
X143.3Y-105.4
X143.3Y-110.2
X143.5Y-80.2
X143.7Y-109.4
X143.901Y-103.1
X144.0Y-64.552
X144.0Y-122.3
X144.1Y-108.6
X144.1Y-111.0
X144.4Y-77.5
X144.4Y-103.9
X144.9Y-104.7
X145.3Y-100.5
X145.4Y-74.6
X145.4Y-105.5
X145.5Y-42.052
X145.5Y-48.052
X145.5Y-130.552
X145.6Y-119.9
X146.1Y-100.9
X146.2Y-70.1
X146.2Y-75.0
X146.6Y-124.5
X146.8Y-81.9
X146.9Y-101.3
X146.9Y-123.7
X147.0Y-45.052
X147.0Y-138.052
X147.2Y-75.5
X147.2Y-93.9
X147.3Y-59.2
X147.3Y-122.9
X147.4Y-120.5
X147.6Y-94.7
X147.7Y-101.7
X147.9Y-81.6
X148.0Y-75.9
X148.0Y-95.5
X148.4Y-96.3
X148.4Y-123.3
X148.5Y-49.552
X148.5Y-54.052
X148.5Y-66.052
X148.5Y-102.1
X148.5Y-124.552
X148.7Y-122.5
X148.8Y-68.5
X148.8Y-83.4
X149.2Y-115.4
X149.4Y-84.1
X149.6Y-99.5
X149.7Y-112.9
X149.9Y-84.8
X150.0Y-46.552
X150.0Y-73.552
X150.0Y-102.6
X150.0Y-136.552
X150.3Y-85.6
X150.4Y-60.0
X150.4Y-77.7
X150.4Y-99.9
X150.4Y-115.8
X150.5Y-123.7
X150.7Y-113.9
X150.9Y-78.5
X150.9Y-102.6
X150.9Y-116.9
X151.1Y-75.5
X151.1Y-98.2
X151.2Y-81.3
X151.2Y-100.3
X151.3Y-87.7
X151.3Y-124.1
X151.6Y-113.0
X151.6Y-116.2
X152.0Y-100.7
X152.0Y-102.1
X152.1Y-124.5
X152.5Y-130.0
X152.8Y-86.0
X152.8Y-112.6
X152.9Y-122.1
X152.9Y-124.9
X153.0Y-138.052
X153.2Y-106.8
X153.5Y-109.0
X153.7Y-107.9
X153.7Y-119.8
X153.7Y-122.5
X153.7Y-125.3
X154.0Y-91.9
X154.5Y-42.052
X154.5Y-61.552
X154.5Y-119.2
X154.5Y-122.9
X154.8Y-66.6
X154.8Y-68.5
X154.8Y-91.5
X155.3Y-105.4
X155.3Y-123.3
X155.4Y-116.4
X155.6Y-91.1
X155.7Y-96.0
X156.0Y-45.052
X156.0Y-64.552
X156.0Y-70.552
X156.0Y-94.552
X156.0Y-117.0
X156.0Y-136.552
X156.2Y-79.6
X156.6Y-80.4
X156.6Y-117.6
X156.8Y-92.4
X156.8Y-101.1
X157.0Y-111.8
X157.1Y-77.3
X157.2Y-118.2
X157.3Y-90.6
X157.3Y-126.1
X157.4Y-133.6
X157.5Y-52.552
X157.5Y-67.552
X157.5Y-105.052
X157.6Y-78.1
X157.6Y-101.5
X157.8Y-118.8
X157.8Y-132.8
X158.0Y-74.1
X158.1Y-126.5
X158.2Y-132.0
X158.4Y-74.9
X158.4Y-101.9
X158.6Y-107.2
X158.6Y-131.2
X158.7Y-62.2
X158.8Y-75.7
X158.9Y-126.9
X159.0Y-91.552
X159.0Y-130.4
X159.2Y-76.5
X159.2Y-98.4
X159.2Y-102.3
X159.4Y-129.6
X159.7Y-127.3
X160.0Y-98.0
X160.1Y-104.6
X160.3Y-79.9
X160.5Y-46.552
X160.5Y-51.052
X160.5Y-94.552
X160.5Y-127.7
X160.7Y-79.1
X160.8Y-97.6
X160.9Y-105.0
X161.1Y-78.3
X161.1Y-130.6
X161.6Y-77.5
X161.7Y-104.2
X162.0Y-72.052
X162.0Y-119.9
X162.0Y-138.052
X162.3Y-55.4
X162.3Y-79.9
X162.5Y-103.8
X162.7Y-56.2
X162.7Y-119.2
X162.8Y-108.8
X162.8Y-126.7
X163.1Y-57.0
X163.1Y-80.3
X163.4Y-120.9
X163.5Y-42.052
X163.5Y-75.052
X163.5Y-106.1
X163.5Y-117.052
X163.5Y-126.1
X163.9Y-80.7
X163.9Y-128.2
X164.0Y-84.6
X164.1Y-101.3
X164.3Y-53.4
X164.3Y-108.4
X164.5Y-91.4
X164.5Y-92.8
X164.6Y-121.7
X164.7Y-54.2
X164.7Y-81.1
X164.9Y-105.7
X165.0Y-45.052
X165.0Y-55.552
X165.0Y-67.552
X165.0Y-88.552
X165.0Y-136.552
X165.4Y-91.4
X165.4Y-114.0
X165.5Y-62.2
X165.6Y-96.4
X165.7Y-99.3
X165.7Y-105.3
X165.801Y-121.3
X165.9Y-115.7
X166.4Y-70.5
X166.5Y-52.552
X166.5Y-73.552
X166.5Y-94.552
X166.5Y-118.552
X166.5Y-130.552
X167.6Y-50.0
X168.0Y-42.052
X168.0Y-48.052
X168.0Y-53.8
X168.0Y-73.8
X168.0Y-97.9
X168.0Y-117.9
X168.0Y-135.052
X168.397Y-64.997
X168.4Y-85.0
X168.4Y-87.2
X168.4Y-109.1
X168.4Y-129.1
X168.8Y-54.5
X168.8Y-74.5
X168.8Y-98.6
X168.8Y-100.3
X168.8Y-118.6
X169.2Y-65.7
X169.2Y-85.7
X169.2Y-87.9
X169.2Y-109.8
X169.2Y-129.8
X169.5Y-138.052
X169.6Y-55.2
X169.6Y-75.2
X169.6Y-99.3
X169.6Y-101.0
X169.6Y-119.3
X170.0Y-66.4
X170.0Y-85.0
X170.0Y-88.6
X170.0Y-110.5
X170.0Y-130.5
X170.4Y-53.8
X170.4Y-73.8
X170.4Y-97.9
X170.4Y-101.7
X170.4Y-117.9
X170.8Y-65.0
X170.8Y-85.7
X170.8Y-89.3
X170.8Y-109.1
X170.8Y-129.1
X171.0Y-43.552
X171.0Y-49.552
X171.2Y-54.5
X171.2Y-74.5
X171.2Y-98.6
X171.2Y-102.4
X171.2Y-118.6
X171.6Y-65.7
X171.6Y-85.0
X171.6Y-90.0
X171.6Y-109.8
X171.6Y-129.8
X172.0Y-55.2
X172.0Y-75.2
X172.0Y-99.3
X172.0Y-119.3
X172.4Y-66.4
X172.4Y-85.7
X172.4Y-90.7
X172.4Y-110.5
X172.4Y-130.5
X172.5Y-135.052
X172.8Y-53.8
X172.8Y-73.8
X172.8Y-76.4
X172.8Y-97.9
X172.8Y-117.9
X173.2Y-65.0
X173.2Y-85.0
X173.2Y-91.4
X173.2Y-109.1
X173.2Y-129.1
X173.6Y-54.5
X173.6Y-74.5
X173.6Y-98.6
X173.6Y-118.6
X174.0Y-42.052
X174.0Y-48.052
X174.0Y-65.7
X174.0Y-85.7
X174.0Y-92.1
X174.0Y-109.8
X174.0Y-129.8
X174.0Y-138.052
X174.4Y-55.2
X174.4Y-75.2
X174.4Y-77.2
X174.4Y-99.3
X174.4Y-119.3
X174.8Y-66.4
X174.8Y-85.0
X174.8Y-110.5
X174.8Y-130.5
X175.2Y-53.8
X175.2Y-73.8
X175.2Y-77.9
X175.2Y-97.9
X175.2Y-117.9
X175.6Y-65.0
X175.6Y-85.7
X175.6Y-92.8
X175.6Y-109.1
X175.6Y-129.1
X176.0Y-54.5
X176.0Y-74.5
X176.0Y-78.6
X176.0Y-98.6
X176.0Y-118.6
X176.5Y-131.2
X177.0Y-43.552
X177.0Y-57.052
X177.0Y-67.552
X177.0Y-111.052
X177.0Y-120.052
X177.0Y-135.052
X177.9Y-48.5
X177.9Y-68.8
X177.9Y-112.7
X178.0Y-97.9
X178.5Y-54.052
X178.5Y-73.552
X178.5Y-126.052
X178.5Y-138.052
X179.3Y-98.7
X179.7Y-67.1
X179.7Y-131.1
X180.0Y-42.052
X180.0Y-48.052
X180.0Y-60.8
X180.0Y-61.8
X180.0Y-80.8
X180.0Y-81.8
X180.0Y-104.9
X180.0Y-105.9
X180.0Y-124.9
X180.0Y-125.9
X180.8Y-53.8
X180.8Y-58.0
X180.8Y-73.8
X180.8Y-78.0
X180.8Y-97.9
X180.8Y-102.1
X180.8Y-117.9
X180.8Y-122.1
X181.0Y-85.6
X181.0Y-110.2
X181.2Y-92.3
X181.3Y-114.1
X181.5Y-66.052
X181.5Y-94.1
X181.5Y-130.552
X181.5Y-135.052
X181.6Y-87.5
X181.9Y-50.0
X182.0Y-70.0
X182.4Y-60.4
X182.4Y-61.8
X182.4Y-80.4
X182.4Y-81.8
X182.4Y-104.5
X182.4Y-105.9
X182.4Y-124.5
X182.4Y-125.9
X182.9Y-114.1
X183.0Y-43.552
X183.0Y-94.1
X183.0Y-138.052
X183.2Y-53.8
X183.2Y-58.4
X183.2Y-73.8
X183.2Y-78.4
X183.2Y-97.9
X183.2Y-102.5
X183.2Y-117.9
X183.2Y-122.5
X183.4Y-110.2
X183.5Y-131.1
X183.6Y-85.6
X184.5Y-48.052
X184.5Y-55.552
X184.5Y-75.052
X184.5Y-120.052
X184.7Y-67.1
X184.8Y-60.0
X184.8Y-61.8
X184.8Y-80.0
X184.8Y-81.8
X184.8Y-104.1
X184.8Y-105.9
X184.8Y-124.1
X184.8Y-125.9
X185.6Y-53.8
X185.6Y-58.8
X185.6Y-73.8
X185.6Y-78.8
X185.6Y-97.9
X185.6Y-102.9
X185.6Y-117.9
X185.6Y-122.9
X185.7Y-87.5
X186.0Y-42.052
X186.0Y-67.552
X186.0Y-111.052
X186.0Y-135.052
X186.4Y-48.5
X186.5Y-68.8
X186.5Y-112.7
X186.9Y-92.2
X187.2Y-59.6
X187.2Y-61.8
X187.2Y-79.6
X187.2Y-81.8
X187.2Y-103.7
X187.2Y-105.9
X187.2Y-123.7
X187.2Y-125.9
X187.5Y-138.052
X188.0Y-53.8
X188.0Y-59.2
X188.0Y-73.8
X188.0Y-79.2
X188.0Y-94.0
X188.0Y-97.9
X188.0Y-103.3
X188.0Y-117.9
X188.0Y-123.3
X188.0Y-129.4
X189.0Y-43.552
X189.0Y-55.552
X189.0Y-66.052
X189.0Y-75.052
X189.0Y-85.552
X189.0Y-109.552
X189.0Y-120.052
X189.1Y-87.6
X189.8Y-126.6
X190.0Y-82.2
X190.0Y-106.3
X190.1Y-48.5
X190.2Y-68.7
X190.5Y-97.552
X190.8Y-62.2
X191.4Y-113.0
X191.6Y-93.8
X191.6Y-114.3
X191.8Y-70.2
X191.9Y-94.9
X192.0Y-42.052
X192.0Y-48.052
X192.0Y-57.052
X192.0Y-67.552
X192.0Y-111.052
X192.0Y-126.052
X192.0Y-135.052
X192.6Y-50.0
X193.0Y-53.8
X193.0Y-73.8
X193.0Y-97.9
X193.0Y-117.9
X193.397Y-64.997
X193.4Y-85.0
X193.4Y-87.2
X193.4Y-109.1
X193.4Y-129.1
X193.5Y-138.052
X193.8Y-54.5
X193.8Y-74.5
X193.8Y-98.6
X193.8Y-118.6
X194.2Y-65.7
X194.2Y-85.7
X194.2Y-87.9
X194.2Y-109.8
X194.2Y-129.8
X194.6Y-55.2
X194.6Y-75.2
X194.6Y-99.3
X194.6Y-119.3
X195.0Y-49.552
X195.0Y-66.4
X195.0Y-85.0
X195.0Y-88.6
X195.0Y-110.5
X195.0Y-130.5
X195.4Y-53.8
X195.4Y-73.8
X195.4Y-100.0
X195.4Y-117.9
X195.8Y-65.0
X195.8Y-85.7
X195.8Y-89.3
X195.8Y-109.1
X195.8Y-129.1
X196.2Y-54.5
X196.2Y-74.5
X196.2Y-100.7
X196.2Y-118.6
X196.5Y-135.052
X196.6Y-65.7
X196.6Y-85.0
X196.6Y-90.0
X196.6Y-109.8
X196.6Y-129.8
X197.0Y-55.2
X197.0Y-75.2
X197.0Y-99.3
X197.0Y-119.3
X197.4Y-66.4
X197.4Y-85.7
X197.4Y-90.7
X197.4Y-110.5
X197.4Y-130.5
X197.8Y-53.8
X197.8Y-73.8
X197.8Y-97.9
X197.8Y-117.9
X198.0Y-48.052
X198.0Y-138.052
X198.2Y-65.0
X198.2Y-85.0
X198.2Y-91.4
X198.2Y-109.1
X198.2Y-129.1
X198.6Y-54.5
X198.6Y-74.5
X198.6Y-98.6
X198.6Y-118.6
X199.0Y-65.7
X199.0Y-85.7
X199.0Y-92.1
X199.0Y-109.8
X199.0Y-129.8
X199.4Y-55.2
X199.4Y-75.2
X199.4Y-99.3
X199.4Y-119.3
X199.8Y-66.4
X199.8Y-85.0
X199.8Y-110.5
X199.8Y-130.5
X200.2Y-53.8
X200.2Y-75.9
X200.2Y-97.9
X200.2Y-117.9
X200.6Y-65.0
X200.6Y-85.7
X200.6Y-92.8
X200.6Y-109.1
X200.6Y-129.1
X201.0Y-49.552
X201.0Y-54.5
X201.0Y-76.6
X201.0Y-98.6
X201.0Y-118.6
X201.0Y-135.052
X201.5Y-131.2
X202.5Y-54.052
X202.5Y-61.552
X202.5Y-73.552
X202.5Y-87.052
X202.5Y-91.552
X202.5Y-99.052
X202.5Y-111.052
X202.5Y-118.552
X202.5Y-126.052
X202.5Y-138.052
X202.9Y-68.7
X202.9Y-92.8
X202.9Y-112.7
X203.0Y-48.5
X204.0Y-57.052
X204.0Y-76.552
X204.662Y-67.062
X204.7Y-86.9
X204.7Y-111.1
X204.7Y-131.1
X205.5Y-48.052
X205.5Y-88.552
X205.5Y-112.552
X205.5Y-135.052
X206.9Y-94.1
X207.0Y-50.0
X207.0Y-54.052
X207.0Y-61.552
X207.0Y-66.052
X207.0Y-70.0
X207.0Y-73.552
X207.0Y-85.552
X207.0Y-91.552
X207.0Y-99.052
X207.0Y-109.552
X207.0Y-114.1
X207.0Y-118.552
X207.0Y-126.052
X207.0Y-130.552
X207.0Y-138.052
X208.5Y-49.552
X208.5Y-69.052
X208.5Y-94.552
X208.5Y-114.052
X209.7Y-67.0
X209.7Y-111.1
X209.8Y-86.9
X209.8Y-131.1
X210.0Y-88.552
X210.0Y-135.052
X211.5Y-48.5
X211.5Y-54.052
X211.5Y-61.552
X211.5Y-68.7
X211.5Y-73.552
X211.5Y-78.052
X211.5Y-91.552
X211.5Y-92.8
X211.5Y-99.052
X211.5Y-105.052
X211.5Y-111.052
X211.5Y-112.7
X211.5Y-118.552
X211.5Y-124.552
X211.5Y-138.052
X213.0Y-48.052
X213.0Y-66.052
X213.0Y-70.552
X213.0Y-85.552
X213.0Y-94.552
X213.0Y-114.052
X213.4Y-129.2
X214.5Y-57.052
X214.5Y-63.052
X214.5Y-79.552
X214.5Y-88.552
X214.5Y-102.052
X214.5Y-106.552
X214.5Y-121.552
X214.5Y-126.052
X215.5Y-71.3
X215.5Y-115.2
X215.6Y-51.1
X215.6Y-95.1
X216.0Y-42.052
X216.0Y-46.552
X216.0Y-60.052
X216.0Y-67.552
X216.0Y-76.552
X216.0Y-82.552
X216.0Y-91.552
X216.0Y-109.552
X217.5Y-49.552
X217.5Y-54.052
X217.5Y-64.552
X217.5Y-70.552
X217.5Y-85.552
X217.5Y-94.552
X217.5Y-99.052
X217.5Y-103.552
X217.5Y-112.552
X217.5Y-117.052
X217.5Y-123.052
X217.5Y-132.052
X219.0Y-43.552
X219.0Y-57.052
X219.0Y-73.552
X219.0Y-78.052
X219.0Y-88.552
X219.0Y-106.552
X219.0Y-120.052
X220.5Y-46.552
X220.5Y-66.052
X220.5Y-84.052
X220.5Y-91.552
X220.5Y-100.552
X220.5Y-109.552
X220.5Y-126.052
X220.5Y-130.552
X220.5Y-138.052
X222.0Y-42.052
X222.0Y-54.052
X222.0Y-70.552
X222.0Y-105.052
X222.0Y-133.552
X223.5Y-45.052
X223.5Y-57.052
X223.5Y-61.552
X223.5Y-67.552
X225.0Y-48.052
X225.0Y-124.552
X225.0Y-132.052
X226.0Y-61.8
X226.0Y-96.8
X226.1Y-79.6
X226.1Y-114.6
X226.5Y-51.052
X226.5Y-55.552
X226.5Y-63.052
X226.5Y-70.552
X226.5Y-81.052
X226.5Y-88.552
X226.5Y-99.052
X226.5Y-105.052
X226.5Y-109.552
X226.5Y-117.052
X226.5Y-127.552
X228.0Y-46.552
X228.0Y-58.552
X228.0Y-66.052
X228.0Y-73.552
X228.0Y-78.052
X228.0Y-84.052
X228.0Y-91.552
X228.0Y-96.052
X228.0Y-102.052
X228.0Y-112.552
X228.0Y-120.052
X228.0Y-130.552
T3
X103.2Y-51.5
X103.2Y-54.0
X122.969Y-46.858
X122.969Y-57.526
X122.969Y-68.194
X127.969Y-46.858
X127.969Y-57.526
X127.969Y-68.194
T4
X76.306Y-113.177
X76.306Y-123.287
X77.826Y-115.717
X77.826Y-125.827
T5
X87.546Y-115.057
X87.546Y-117.597
X87.546Y-120.137
X87.546Y-122.677
X90.086Y-116.327
X90.086Y-118.867
X90.086Y-121.407
X90.086Y-123.947
T6
X82.7Y-136.52
X85.24Y-136.52
X87.78Y-136.52
X90.32Y-136.52
X92.86Y-136.52
X95.4Y-136.52
X97.94Y-136.52
X100.48Y-136.52
X103.02Y-136.52
X105.56Y-136.52
X108.1Y-136.52
X110.64Y-136.52
X113.155Y-78.161
X113.155Y-80.701
X113.155Y-85.781
X113.155Y-88.321
X113.18Y-106.04
X113.18Y-108.58
X113.18Y-111.12
X113.18Y-113.66
X113.18Y-116.2
X113.18Y-118.74
X113.18Y-121.28
X113.18Y-123.82
X113.18Y-126.36
X113.18Y-128.9
X113.18Y-136.52
X115.695Y-78.161
X115.695Y-80.701
X115.695Y-85.781
X115.695Y-88.321
X115.72Y-106.04
X115.72Y-108.58
X115.72Y-111.12
X115.72Y-113.66
X115.72Y-116.2
X115.72Y-118.74
X115.72Y-121.28
X115.72Y-123.82
X115.72Y-126.36
X115.72Y-128.9
X115.72Y-136.52
X118.26Y-136.52
X123.34Y-136.495
X125.88Y-136.495
X128.42Y-136.495
X130.96Y-136.495
X133.5Y-136.495
X195.455Y-43.153
X195.455Y-45.693
X197.995Y-43.153
X197.995Y-45.693
X200.535Y-43.153
X200.535Y-45.693
X203.075Y-43.153
X203.075Y-45.693
X205.615Y-43.153
X205.615Y-45.693
X208.155Y-43.153
X208.155Y-45.693
X210.695Y-43.153
X210.695Y-45.693
X213.235Y-43.153
X213.235Y-45.693
T7
X78.585Y-66.157
X78.585Y-71.237
T8
X84.256Y-111.727
X84.256Y-127.277
X89.0Y-66.36
X89.0Y-71.44
T9
X106.576Y-60.701
X106.576Y-72.141
T10
X87.144Y-51.853
X96.541Y-51.853
T11
X91.843Y-51.853
T2
G00X85.239Y-42.988
M15
G01X85.239Y-41.668
M16
G05
G00X98.447Y-42.988
M15
G01X98.447Y-41.668
M16
G05
T6
G00X76.196Y-50.994
M15
G01X74.696Y-50.994
M16
G05
G00X76.196Y-59.994
M15
G01X74.696Y-59.994
M16
G05
G00X76.446Y-54.844
M15
G01X76.446Y-56.144
M16
G05
G00X82.446Y-54.494
M15
G01X82.446Y-56.494
M16
G05
T0
M30
