%TF.GenerationSoftware,KiCad,Pcbnew,6.0.11-2627ca5db0~126~ubuntu22.04.1*%
%TF.CreationDate,2023-07-01T17:45:04+02:00*%
%TF.ProjectId,marco-ram-board,6d617263-6f2d-4726-916d-2d626f617264,rev?*%
%TF.SameCoordinates,Original*%
%TF.FileFunction,Soldermask,Bot*%
%TF.FilePolarity,Negative*%
%FSLAX46Y46*%
G04 Gerber Fmt 4.6, Leading zero omitted, Abs format (unit mm)*
G04 Created by KiCad (PCBNEW 6.0.11-2627ca5db0~126~ubuntu22.04.1) date 2023-07-01 17:45:04*
%MOMM*%
%LPD*%
G01*
G04 APERTURE LIST*
%TA.AperFunction,Profile*%
%ADD10C,0.100000*%
%TD*%
%ADD11R,1.600000X1.600000*%
%ADD12C,1.600000*%
%ADD13R,1.700000X1.700000*%
%ADD14O,1.700000X1.700000*%
%ADD15R,2.000000X4.000000*%
%ADD16O,2.000000X3.300000*%
%ADD17O,3.500000X2.000000*%
%ADD18C,0.900000*%
%ADD19O,1.270000X2.794000*%
%ADD20R,3.708400X3.708400*%
%ADD21C,3.708400*%
%ADD22C,3.200000*%
%ADD23C,2.700000*%
%ADD24C,1.300000*%
%ADD25R,3.200000X3.200000*%
%ADD26O,3.200000X3.200000*%
%ADD27R,2.600000X2.600000*%
%ADD28C,2.600000*%
%ADD29C,3.600000*%
%ADD30C,3.250000*%
%ADD31C,1.890000*%
%ADD32R,1.900000X1.900000*%
%ADD33C,1.900000*%
G04 APERTURE END LIST*
D10*
X230000000Y-140000000D02*
X230000000Y-40000000D01*
X70000000Y-40000000D02*
X230000000Y-40000000D01*
X70000000Y-40000000D02*
X70000000Y-140000000D01*
X70000000Y-140000000D02*
X230000000Y-140000000D01*
D11*
%TO.C,C604*%
X122969349Y-68194000D03*
D12*
X127969349Y-68194000D03*
%TD*%
D13*
%TO.C,J206*%
X115720000Y-106040000D03*
D14*
X113180000Y-106040000D03*
X115720000Y-108580000D03*
X113180000Y-108580000D03*
X115720000Y-111120000D03*
X113180000Y-111120000D03*
X115720000Y-113660000D03*
X113180000Y-113660000D03*
X115720000Y-116200000D03*
X113180000Y-116200000D03*
X115720000Y-118740000D03*
X113180000Y-118740000D03*
X115720000Y-121280000D03*
X113180000Y-121280000D03*
X115720000Y-123820000D03*
X113180000Y-123820000D03*
X115720000Y-126360000D03*
X113180000Y-126360000D03*
X115720000Y-128900000D03*
X113180000Y-128900000D03*
%TD*%
D13*
%TO.C,J202*%
X115695000Y-88321000D03*
D14*
X113155000Y-88321000D03*
%TD*%
D12*
%TO.C,J601*%
X73446000Y-55494000D03*
D15*
X82446000Y-55494000D03*
D16*
X76446000Y-55494000D03*
D17*
X75446000Y-59994000D03*
X75446000Y-50994000D03*
%TD*%
D18*
%TO.C,J201*%
X153800000Y-46400000D03*
X158200000Y-46400000D03*
%TD*%
D13*
%TO.C,J204*%
X115695000Y-80701000D03*
D14*
X113155000Y-80701000D03*
%TD*%
D18*
%TO.C,J501*%
X140200000Y-46400000D03*
X135800000Y-46400000D03*
%TD*%
D19*
%TO.C,SW601*%
X98446500Y-42328000D03*
X85238500Y-42328000D03*
D20*
X96541500Y-51853000D03*
D21*
X91842500Y-51853000D03*
X87143500Y-51853000D03*
%TD*%
D13*
%TO.C,J203*%
X115695000Y-85781000D03*
D14*
X113155000Y-85781000D03*
%TD*%
D22*
%TO.C,H102*%
X226000000Y-44000000D03*
%TD*%
D23*
%TO.C,H501*%
X189160000Y-135602857D03*
%TD*%
D13*
%TO.C,J205*%
X115695000Y-78161000D03*
D14*
X113155000Y-78161000D03*
%TD*%
D23*
%TO.C,H502*%
X216560000Y-135602857D03*
%TD*%
D22*
%TO.C,H101*%
X74000000Y-44000000D03*
%TD*%
D24*
%TO.C,J502*%
X98550000Y-80900000D03*
X98550000Y-103300000D03*
%TD*%
D11*
%TO.C,C603*%
X122969349Y-57526000D03*
D12*
X127969349Y-57526000D03*
%TD*%
D13*
%TO.C,J301*%
X123340000Y-136495000D03*
D14*
X125880000Y-136495000D03*
X128420000Y-136495000D03*
X130960000Y-136495000D03*
X133500000Y-136495000D03*
%TD*%
D11*
%TO.C,C602*%
X122969349Y-46858000D03*
D12*
X127969349Y-46858000D03*
%TD*%
D25*
%TO.C,D601*%
X89000000Y-66360000D03*
D26*
X89000000Y-71440000D03*
%TD*%
D13*
%TO.C,J302*%
X82700000Y-136520000D03*
D14*
X85240000Y-136520000D03*
X87780000Y-136520000D03*
X90320000Y-136520000D03*
X92860000Y-136520000D03*
X95400000Y-136520000D03*
X97940000Y-136520000D03*
X100480000Y-136520000D03*
X103020000Y-136520000D03*
X105560000Y-136520000D03*
X108100000Y-136520000D03*
X110640000Y-136520000D03*
X113180000Y-136520000D03*
X115720000Y-136520000D03*
X118260000Y-136520000D03*
%TD*%
D13*
%TO.C,J503*%
X213235000Y-45692857D03*
D14*
X213235000Y-43152857D03*
X210695000Y-45692857D03*
X210695000Y-43152857D03*
X208155000Y-45692857D03*
X208155000Y-43152857D03*
X205615000Y-45692857D03*
X205615000Y-43152857D03*
X203075000Y-45692857D03*
X203075000Y-43152857D03*
X200535000Y-45692857D03*
X200535000Y-43152857D03*
X197995000Y-45692857D03*
X197995000Y-43152857D03*
X195455000Y-45692857D03*
X195455000Y-43152857D03*
%TD*%
D27*
%TO.C,J602*%
X78585000Y-66157000D03*
D28*
X78585000Y-71237000D03*
%TD*%
D29*
%TO.C,L601*%
X106576000Y-60701000D03*
X106576000Y-72141000D03*
%TD*%
D22*
%TO.C,H103*%
X226000000Y-136000000D03*
%TD*%
D30*
%TO.C,J504*%
X81206000Y-125217000D03*
X81206000Y-113787000D03*
D28*
X84256000Y-111727000D03*
X84256000Y-127277000D03*
D31*
X77826000Y-125827000D03*
X76306000Y-123287000D03*
X77826000Y-115717000D03*
X76306000Y-113177000D03*
D32*
X87546000Y-115057000D03*
D33*
X90086000Y-116327000D03*
X87546000Y-117597000D03*
X90086000Y-118867000D03*
X87546000Y-120137000D03*
X90086000Y-121407000D03*
X87546000Y-122677000D03*
X90086000Y-123947000D03*
%TD*%
D11*
%TO.C,C601*%
X103200000Y-54000000D03*
D12*
X103200000Y-51500000D03*
%TD*%
D22*
%TO.C,H104*%
X74000000Y-136000000D03*
%TD*%
M02*
