%TF.GenerationSoftware,KiCad,Pcbnew,6.0.11-2627ca5db0~126~ubuntu22.04.1*%
%TF.CreationDate,2023-07-01T17:45:03+02:00*%
%TF.ProjectId,marco-ram-board,6d617263-6f2d-4726-916d-2d626f617264,rev?*%
%TF.SameCoordinates,Original*%
%TF.FileFunction,Paste,Top*%
%TF.FilePolarity,Positive*%
%FSLAX46Y46*%
G04 Gerber Fmt 4.6, Leading zero omitted, Abs format (unit mm)*
G04 Created by KiCad (PCBNEW 6.0.11-2627ca5db0~126~ubuntu22.04.1) date 2023-07-01 17:45:03*
%MOMM*%
%LPD*%
G01*
G04 APERTURE LIST*
G04 Aperture macros list*
%AMRoundRect*
0 Rectangle with rounded corners*
0 $1 Rounding radius*
0 $2 $3 $4 $5 $6 $7 $8 $9 X,Y pos of 4 corners*
0 Add a 4 corners polygon primitive as box body*
4,1,4,$2,$3,$4,$5,$6,$7,$8,$9,$2,$3,0*
0 Add four circle primitives for the rounded corners*
1,1,$1+$1,$2,$3*
1,1,$1+$1,$4,$5*
1,1,$1+$1,$6,$7*
1,1,$1+$1,$8,$9*
0 Add four rect primitives between the rounded corners*
20,1,$1+$1,$2,$3,$4,$5,0*
20,1,$1+$1,$4,$5,$6,$7,0*
20,1,$1+$1,$6,$7,$8,$9,0*
20,1,$1+$1,$8,$9,$2,$3,0*%
%AMRotRect*
0 Rectangle, with rotation*
0 The origin of the aperture is its center*
0 $1 length*
0 $2 width*
0 $3 Rotation angle, in degrees counterclockwise*
0 Add horizontal line*
21,1,$1,$2,0,0,$3*%
G04 Aperture macros list end*
%TA.AperFunction,Profile*%
%ADD10C,0.100000*%
%TD*%
%ADD11RoundRect,0.237500X0.300000X0.237500X-0.300000X0.237500X-0.300000X-0.237500X0.300000X-0.237500X0*%
%ADD12RoundRect,0.237500X-0.237500X0.300000X-0.237500X-0.300000X0.237500X-0.300000X0.237500X0.300000X0*%
%ADD13R,5.250000X4.550000*%
%ADD14R,1.100000X4.600000*%
%ADD15RoundRect,0.250000X0.400000X0.275000X-0.400000X0.275000X-0.400000X-0.275000X0.400000X-0.275000X0*%
%ADD16RoundRect,0.237500X0.287500X0.237500X-0.287500X0.237500X-0.287500X-0.237500X0.287500X-0.237500X0*%
%ADD17R,2.600000X1.500000*%
%ADD18RoundRect,0.250000X-0.537500X-0.425000X0.537500X-0.425000X0.537500X0.425000X-0.537500X0.425000X0*%
%ADD19RoundRect,0.237500X-0.300000X-0.237500X0.300000X-0.237500X0.300000X0.237500X-0.300000X0.237500X0*%
%ADD20RoundRect,0.237500X-0.044194X-0.380070X0.380070X0.044194X0.044194X0.380070X-0.380070X-0.044194X0*%
%ADD21RoundRect,0.237500X-0.344715X0.008839X0.008839X-0.344715X0.344715X-0.008839X-0.008839X0.344715X0*%
%ADD22R,0.458000X1.510000*%
%ADD23RoundRect,0.237500X-0.237500X0.250000X-0.237500X-0.250000X0.237500X-0.250000X0.237500X0.250000X0*%
%ADD24R,1.600000X1.300000*%
%ADD25R,1.500000X2.600000*%
%ADD26RotRect,1.600000X1.300000X315.000000*%
%ADD27RoundRect,0.237500X0.250000X0.237500X-0.250000X0.237500X-0.250000X-0.237500X0.250000X-0.237500X0*%
%ADD28RoundRect,0.237500X-0.380070X0.044194X0.044194X-0.380070X0.380070X-0.044194X-0.044194X0.380070X0*%
%ADD29RoundRect,0.237500X0.237500X-0.250000X0.237500X0.250000X-0.237500X0.250000X-0.237500X-0.250000X0*%
%ADD30RoundRect,0.250000X-0.097227X0.574524X-0.574524X0.097227X0.097227X-0.574524X0.574524X-0.097227X0*%
%ADD31R,2.100000X1.400000*%
%ADD32R,0.500000X2.500000*%
%ADD33R,2.000000X2.500000*%
%ADD34RoundRect,0.237500X0.237500X-0.300000X0.237500X0.300000X-0.237500X0.300000X-0.237500X-0.300000X0*%
%ADD35RoundRect,0.237500X-0.250000X-0.237500X0.250000X-0.237500X0.250000X0.237500X-0.250000X0.237500X0*%
%ADD36RoundRect,0.250000X0.475000X-0.337500X0.475000X0.337500X-0.475000X0.337500X-0.475000X-0.337500X0*%
%ADD37RoundRect,0.237500X0.044194X0.380070X-0.380070X-0.044194X-0.044194X-0.380070X0.380070X0.044194X0*%
%ADD38RoundRect,0.150000X0.150000X-0.825000X0.150000X0.825000X-0.150000X0.825000X-0.150000X-0.825000X0*%
%ADD39RoundRect,0.237500X-0.287500X-0.237500X0.287500X-0.237500X0.287500X0.237500X-0.287500X0.237500X0*%
%ADD40R,1.400000X2.100000*%
%ADD41RoundRect,0.150000X0.587500X0.150000X-0.587500X0.150000X-0.587500X-0.150000X0.587500X-0.150000X0*%
%ADD42RoundRect,0.250000X-0.337500X-0.475000X0.337500X-0.475000X0.337500X0.475000X-0.337500X0.475000X0*%
%ADD43R,2.000000X1.100000*%
%ADD44R,1.000000X2.000000*%
%ADD45R,2.000000X2.000000*%
%ADD46RoundRect,0.250000X0.097227X-0.574524X0.574524X-0.097227X-0.097227X0.574524X-0.574524X0.097227X0*%
%ADD47RoundRect,0.237500X0.344715X-0.008839X-0.008839X0.344715X-0.344715X0.008839X0.008839X-0.344715X0*%
%ADD48RoundRect,0.237500X0.380070X-0.044194X-0.044194X0.380070X-0.380070X0.044194X0.044194X-0.380070X0*%
%ADD49RoundRect,0.075000X-0.075000X0.700000X-0.075000X-0.700000X0.075000X-0.700000X0.075000X0.700000X0*%
%ADD50RoundRect,0.075000X-0.700000X0.075000X-0.700000X-0.075000X0.700000X-0.075000X0.700000X0.075000X0*%
%ADD51RoundRect,0.250000X-0.400000X-0.275000X0.400000X-0.275000X0.400000X0.275000X-0.400000X0.275000X0*%
%ADD52RoundRect,0.075000X-0.424264X-0.530330X0.530330X0.424264X0.424264X0.530330X-0.530330X-0.424264X0*%
%ADD53RoundRect,0.075000X0.424264X-0.530330X0.530330X-0.424264X-0.424264X0.530330X-0.530330X0.424264X0*%
%ADD54RoundRect,0.250000X-0.275000X-0.275000X0.275000X-0.275000X0.275000X0.275000X-0.275000X0.275000X0*%
%ADD55RoundRect,0.062500X-0.350000X-0.062500X0.350000X-0.062500X0.350000X0.062500X-0.350000X0.062500X0*%
%ADD56RoundRect,0.062500X-0.062500X-0.350000X0.062500X-0.350000X0.062500X0.350000X-0.062500X0.350000X0*%
G04 APERTURE END LIST*
D10*
X230000000Y-140000000D02*
X230000000Y-40000000D01*
X70000000Y-40000000D02*
X230000000Y-40000000D01*
X70000000Y-40000000D02*
X70000000Y-140000000D01*
X70000000Y-140000000D02*
X230000000Y-140000000D01*
D11*
%TO.C,C428*%
X211462500Y-94100000D03*
X209737500Y-94100000D03*
%TD*%
D12*
%TO.C,C441*%
X165800000Y-126637500D03*
X165800000Y-128362500D03*
%TD*%
D13*
%TO.C,U601*%
X116209000Y-43027000D03*
X116209000Y-47877000D03*
X110659000Y-47877000D03*
X110659000Y-43027000D03*
D14*
X110034000Y-54602000D03*
X111734000Y-54602000D03*
X113434000Y-54602000D03*
X115134000Y-54602000D03*
X116834000Y-54602000D03*
%TD*%
D12*
%TO.C,C438*%
X215600000Y-72537500D03*
X215600000Y-74262500D03*
%TD*%
D15*
%TO.C,C206*%
X145475000Y-57800000D03*
X143525000Y-57800000D03*
%TD*%
D16*
%TO.C,FB201*%
X158675000Y-61000000D03*
X156925000Y-61000000D03*
%TD*%
D17*
%TO.C,D502*%
X224160000Y-49930000D03*
X224160000Y-52930000D03*
%TD*%
D18*
%TO.C,C506*%
X102525000Y-125200000D03*
X105400000Y-125200000D03*
%TD*%
D11*
%TO.C,C432*%
X211462500Y-50000000D03*
X209737500Y-50000000D03*
%TD*%
D12*
%TO.C,C434*%
X215600000Y-116637500D03*
X215600000Y-118362500D03*
%TD*%
D19*
%TO.C,C421*%
X177937500Y-70000000D03*
X179662500Y-70000000D03*
%TD*%
D20*
%TO.C,C308*%
X126083120Y-91980880D03*
X127302880Y-90761120D03*
%TD*%
D21*
%TO.C,R301*%
X121354765Y-93854765D03*
X122645235Y-95145235D03*
%TD*%
D22*
%TO.C,U406*%
X213400000Y-72050000D03*
X212600000Y-72050000D03*
X211800000Y-72050000D03*
X211000000Y-72050000D03*
X210200000Y-72050000D03*
X209400000Y-72050000D03*
X208600000Y-72050000D03*
X207800000Y-72050000D03*
X207000000Y-72050000D03*
X206200000Y-72050000D03*
X205400000Y-72050000D03*
X204600000Y-72050000D03*
X203800000Y-72050000D03*
X203000000Y-72050000D03*
X202200000Y-72050000D03*
X201400000Y-72050000D03*
X200600000Y-72050000D03*
X199800000Y-72050000D03*
X199000000Y-72050000D03*
X198200000Y-72050000D03*
X197400000Y-72050000D03*
X196600000Y-72050000D03*
X195800000Y-72050000D03*
X195000000Y-72050000D03*
X194200000Y-72050000D03*
X193400000Y-72050000D03*
X192600000Y-72050000D03*
X192600000Y-83550000D03*
X193400000Y-83550000D03*
X194200000Y-83550000D03*
X195000000Y-83550000D03*
X195800000Y-83550000D03*
X196600000Y-83550000D03*
X197400000Y-83550000D03*
X198200000Y-83550000D03*
X199000000Y-83550000D03*
X199800000Y-83550000D03*
X200600000Y-83550000D03*
X201400000Y-83550000D03*
X202200000Y-83550000D03*
X203000000Y-83550000D03*
X203800000Y-83550000D03*
X204600000Y-83550000D03*
X205400000Y-83550000D03*
X206200000Y-83550000D03*
X207000000Y-83550000D03*
X207800000Y-83550000D03*
X208600000Y-83550000D03*
X209400000Y-83550000D03*
X210200000Y-83550000D03*
X211000000Y-83550000D03*
X211800000Y-83550000D03*
X212600000Y-83550000D03*
X213400000Y-83550000D03*
%TD*%
D11*
%TO.C,C509*%
X91862500Y-130900000D03*
X90137500Y-130900000D03*
%TD*%
D12*
%TO.C,C202*%
X148500000Y-55537500D03*
X148500000Y-57262500D03*
%TD*%
D11*
%TO.C,C430*%
X211462500Y-70000000D03*
X209737500Y-70000000D03*
%TD*%
D23*
%TO.C,R201*%
X153335000Y-61093500D03*
X153335000Y-62918500D03*
%TD*%
D24*
%TO.C,Y201*%
X150450000Y-57500000D03*
X153750000Y-57500000D03*
X153750000Y-55500000D03*
X150450000Y-55500000D03*
%TD*%
D11*
%TO.C,C413*%
X179662500Y-85600000D03*
X177937500Y-85600000D03*
%TD*%
%TO.C,C415*%
X179662500Y-65600000D03*
X177937500Y-65600000D03*
%TD*%
D25*
%TO.C,D602*%
X104900000Y-43800000D03*
X101900000Y-43800000D03*
%TD*%
D26*
%TO.C,Y301*%
X126252334Y-116180762D03*
X128585786Y-118514214D03*
X130000000Y-117100000D03*
X127666548Y-114766548D03*
%TD*%
D27*
%TO.C,R205*%
X136912500Y-64600000D03*
X135087500Y-64600000D03*
%TD*%
%TO.C,R515*%
X105912500Y-88000000D03*
X104087500Y-88000000D03*
%TD*%
D11*
%TO.C,C429*%
X186462500Y-70000000D03*
X184737500Y-70000000D03*
%TD*%
%TO.C,C416*%
X204662500Y-65600000D03*
X202937500Y-65600000D03*
%TD*%
D28*
%TO.C,C311*%
X147790120Y-87890120D03*
X149009880Y-89109880D03*
%TD*%
D19*
%TO.C,C201*%
X151237500Y-53800000D03*
X152962500Y-53800000D03*
%TD*%
D11*
%TO.C,C414*%
X204662500Y-85600000D03*
X202937500Y-85600000D03*
%TD*%
D19*
%TO.C,C424*%
X202937500Y-50000000D03*
X204662500Y-50000000D03*
%TD*%
D22*
%TO.C,U403*%
X188400000Y-96150000D03*
X187600000Y-96150000D03*
X186800000Y-96150000D03*
X186000000Y-96150000D03*
X185200000Y-96150000D03*
X184400000Y-96150000D03*
X183600000Y-96150000D03*
X182800000Y-96150000D03*
X182000000Y-96150000D03*
X181200000Y-96150000D03*
X180400000Y-96150000D03*
X179600000Y-96150000D03*
X178800000Y-96150000D03*
X178000000Y-96150000D03*
X177200000Y-96150000D03*
X176400000Y-96150000D03*
X175600000Y-96150000D03*
X174800000Y-96150000D03*
X174000000Y-96150000D03*
X173200000Y-96150000D03*
X172400000Y-96150000D03*
X171600000Y-96150000D03*
X170800000Y-96150000D03*
X170000000Y-96150000D03*
X169200000Y-96150000D03*
X168400000Y-96150000D03*
X167600000Y-96150000D03*
X167600000Y-107650000D03*
X168400000Y-107650000D03*
X169200000Y-107650000D03*
X170000000Y-107650000D03*
X170800000Y-107650000D03*
X171600000Y-107650000D03*
X172400000Y-107650000D03*
X173200000Y-107650000D03*
X174000000Y-107650000D03*
X174800000Y-107650000D03*
X175600000Y-107650000D03*
X176400000Y-107650000D03*
X177200000Y-107650000D03*
X178000000Y-107650000D03*
X178800000Y-107650000D03*
X179600000Y-107650000D03*
X180400000Y-107650000D03*
X181200000Y-107650000D03*
X182000000Y-107650000D03*
X182800000Y-107650000D03*
X183600000Y-107650000D03*
X184400000Y-107650000D03*
X185200000Y-107650000D03*
X186000000Y-107650000D03*
X186800000Y-107650000D03*
X187600000Y-107650000D03*
X188400000Y-107650000D03*
%TD*%
D19*
%TO.C,C401*%
X183475000Y-129700000D03*
X185200000Y-129700000D03*
%TD*%
D29*
%TO.C,R524*%
X221160000Y-129292500D03*
X221160000Y-127467500D03*
%TD*%
D19*
%TO.C,C405*%
X184737500Y-85600000D03*
X186462500Y-85600000D03*
%TD*%
D30*
%TO.C,C317*%
X156636623Y-107528377D03*
X155169377Y-108995623D03*
%TD*%
D27*
%TO.C,R508*%
X105312500Y-112500000D03*
X103487500Y-112500000D03*
%TD*%
D17*
%TO.C,D501*%
X223960000Y-129892000D03*
X223960000Y-126892000D03*
%TD*%
D31*
%TO.C,SW302*%
X148650000Y-130800000D03*
X139750000Y-130800000D03*
X148650000Y-134800000D03*
X139750000Y-134800000D03*
%TD*%
D32*
%TO.C,J201*%
X157600000Y-49000000D03*
X156800000Y-49000000D03*
X156000000Y-49000000D03*
X155200000Y-49000000D03*
X154400000Y-49000000D03*
D33*
X151600000Y-49000000D03*
X160400000Y-49000000D03*
X151600000Y-43500000D03*
X160400000Y-43500000D03*
%TD*%
D11*
%TO.C,C411*%
X179662500Y-109700000D03*
X177937500Y-109700000D03*
%TD*%
D34*
%TO.C,C503*%
X95800000Y-116662500D03*
X95800000Y-114937500D03*
%TD*%
D35*
%TO.C,R307*%
X157687500Y-87700000D03*
X159512500Y-87700000D03*
%TD*%
D32*
%TO.C,J501*%
X139600000Y-49000000D03*
X138800000Y-49000000D03*
X138000000Y-49000000D03*
X137200000Y-49000000D03*
X136400000Y-49000000D03*
D33*
X142400000Y-49000000D03*
X142400000Y-43500000D03*
X133600000Y-49000000D03*
X133600000Y-43500000D03*
%TD*%
D11*
%TO.C,C208*%
X145362500Y-54900000D03*
X143637500Y-54900000D03*
%TD*%
D35*
%TO.C,R303*%
X143287500Y-137400000D03*
X145112500Y-137400000D03*
%TD*%
D28*
%TO.C,C302*%
X151780240Y-91880240D03*
X153000000Y-93100000D03*
%TD*%
D35*
%TO.C,R211*%
X113512500Y-91273500D03*
X115337500Y-91273500D03*
%TD*%
D27*
%TO.C,R513*%
X105312500Y-117000000D03*
X103487500Y-117000000D03*
%TD*%
D12*
%TO.C,C440*%
X215600000Y-52537500D03*
X215600000Y-54262500D03*
%TD*%
D36*
%TO.C,C501*%
X98600000Y-116837500D03*
X98600000Y-114762500D03*
%TD*%
D19*
%TO.C,C423*%
X177937500Y-50000000D03*
X179662500Y-50000000D03*
%TD*%
D12*
%TO.C,C204*%
X153400000Y-68537500D03*
X153400000Y-70262500D03*
%TD*%
D28*
%TO.C,C304*%
X122480240Y-105480240D03*
X123700000Y-106700000D03*
%TD*%
D37*
%TO.C,C312*%
X151809880Y-109303120D03*
X150590120Y-110522880D03*
%TD*%
D12*
%TO.C,C446*%
X190800000Y-83537500D03*
X190800000Y-85262500D03*
%TD*%
D38*
%TO.C,Q601*%
X87095000Y-61175000D03*
X88365000Y-61175000D03*
X89635000Y-61175000D03*
X90905000Y-61175000D03*
X90905000Y-56225000D03*
X89635000Y-56225000D03*
X88365000Y-56225000D03*
X87095000Y-56225000D03*
%TD*%
D11*
%TO.C,C426*%
X211462500Y-114100000D03*
X209737500Y-114100000D03*
%TD*%
D27*
%TO.C,R206*%
X136912500Y-67600000D03*
X135087500Y-67600000D03*
%TD*%
%TO.C,R507*%
X105912500Y-82000000D03*
X104087500Y-82000000D03*
%TD*%
D19*
%TO.C,C419*%
X177937500Y-94100000D03*
X179662500Y-94100000D03*
%TD*%
D27*
%TO.C,R506*%
X105912500Y-85000000D03*
X104087500Y-85000000D03*
%TD*%
D20*
%TO.C,C310*%
X143590120Y-83709880D03*
X144809880Y-82490120D03*
%TD*%
D19*
%TO.C,C422*%
X202937500Y-70000000D03*
X204662500Y-70000000D03*
%TD*%
D29*
%TO.C,R520*%
X219360000Y-81827857D03*
X219360000Y-80002857D03*
%TD*%
D27*
%TO.C,R502*%
X105912500Y-99200000D03*
X104087500Y-99200000D03*
%TD*%
D12*
%TO.C,C442*%
X190800000Y-127637500D03*
X190800000Y-129362500D03*
%TD*%
D37*
%TO.C,C306*%
X128609880Y-110890120D03*
X127390120Y-112109880D03*
%TD*%
D20*
%TO.C,C301*%
X129790120Y-88309880D03*
X131009880Y-87090120D03*
%TD*%
D39*
%TO.C,FB202*%
X143625000Y-52100000D03*
X145375000Y-52100000D03*
%TD*%
D29*
%TO.C,R523*%
X219360000Y-116627857D03*
X219360000Y-114802857D03*
%TD*%
D40*
%TO.C,SW503*%
X221960000Y-93952857D03*
X221960000Y-102852857D03*
X225960000Y-93952857D03*
X225960000Y-102852857D03*
%TD*%
D23*
%TO.C,R306*%
X162800000Y-85875000D03*
X162800000Y-87700000D03*
%TD*%
D12*
%TO.C,C445*%
X165800000Y-83537500D03*
X165800000Y-85262500D03*
%TD*%
D41*
%TO.C,Q201*%
X136937500Y-74150000D03*
X136937500Y-72250000D03*
X135062500Y-73200000D03*
%TD*%
D27*
%TO.C,R510*%
X105312500Y-109500000D03*
X103487500Y-109500000D03*
%TD*%
%TO.C,R204*%
X136912500Y-61600000D03*
X135087500Y-61600000D03*
%TD*%
D11*
%TO.C,C427*%
X186462500Y-94100000D03*
X184737500Y-94100000D03*
%TD*%
D42*
%TO.C,C207*%
X151962500Y-72700000D03*
X154037500Y-72700000D03*
%TD*%
D20*
%TO.C,C309*%
X134465120Y-83725880D03*
X135684880Y-82506120D03*
%TD*%
D19*
%TO.C,C408*%
X209737500Y-65600000D03*
X211462500Y-65600000D03*
%TD*%
D11*
%TO.C,C316*%
X159862500Y-137400000D03*
X158137500Y-137400000D03*
%TD*%
D12*
%TO.C,C448*%
X190800000Y-63537500D03*
X190800000Y-65262500D03*
%TD*%
D19*
%TO.C,C403*%
X184737500Y-109700000D03*
X186462500Y-109700000D03*
%TD*%
D31*
%TO.C,SW301*%
X163450000Y-130800000D03*
X154550000Y-130800000D03*
X154550000Y-134800000D03*
X163450000Y-134800000D03*
%TD*%
D22*
%TO.C,U402*%
X213400000Y-116150000D03*
X212600000Y-116150000D03*
X211800000Y-116150000D03*
X211000000Y-116150000D03*
X210200000Y-116150000D03*
X209400000Y-116150000D03*
X208600000Y-116150000D03*
X207800000Y-116150000D03*
X207000000Y-116150000D03*
X206200000Y-116150000D03*
X205400000Y-116150000D03*
X204600000Y-116150000D03*
X203800000Y-116150000D03*
X203000000Y-116150000D03*
X202200000Y-116150000D03*
X201400000Y-116150000D03*
X200600000Y-116150000D03*
X199800000Y-116150000D03*
X199000000Y-116150000D03*
X198200000Y-116150000D03*
X197400000Y-116150000D03*
X196600000Y-116150000D03*
X195800000Y-116150000D03*
X195000000Y-116150000D03*
X194200000Y-116150000D03*
X193400000Y-116150000D03*
X192600000Y-116150000D03*
X192600000Y-127650000D03*
X193400000Y-127650000D03*
X194200000Y-127650000D03*
X195000000Y-127650000D03*
X195800000Y-127650000D03*
X196600000Y-127650000D03*
X197400000Y-127650000D03*
X198200000Y-127650000D03*
X199000000Y-127650000D03*
X199800000Y-127650000D03*
X200600000Y-127650000D03*
X201400000Y-127650000D03*
X202200000Y-127650000D03*
X203000000Y-127650000D03*
X203800000Y-127650000D03*
X204600000Y-127650000D03*
X205400000Y-127650000D03*
X206200000Y-127650000D03*
X207000000Y-127650000D03*
X207800000Y-127650000D03*
X208600000Y-127650000D03*
X209400000Y-127650000D03*
X210200000Y-127650000D03*
X211000000Y-127650000D03*
X211800000Y-127650000D03*
X212600000Y-127650000D03*
X213400000Y-127650000D03*
%TD*%
D12*
%TO.C,C437*%
X190200000Y-70137500D03*
X190200000Y-71862500D03*
%TD*%
D43*
%TO.C,J502*%
X100750000Y-98875000D03*
X100750000Y-96375000D03*
D44*
X77800000Y-79200000D03*
D43*
X100750000Y-93875000D03*
X100750000Y-91375000D03*
X100750000Y-88875000D03*
X100750000Y-86375000D03*
X100750000Y-83950000D03*
X100750000Y-82250000D03*
X100750000Y-101375000D03*
D44*
X89350000Y-79200000D03*
X80400000Y-79200000D03*
D45*
X94000000Y-78300000D03*
X75350000Y-78300000D03*
X75350000Y-107300000D03*
X94000000Y-107300000D03*
%TD*%
D27*
%TO.C,R512*%
X105312500Y-130400000D03*
X103487500Y-130400000D03*
%TD*%
D29*
%TO.C,R522*%
X219360000Y-99227857D03*
X219360000Y-97402857D03*
%TD*%
D19*
%TO.C,C420*%
X202937500Y-94100000D03*
X204662500Y-94100000D03*
%TD*%
D27*
%TO.C,R207*%
X136912500Y-60100000D03*
X135087500Y-60100000D03*
%TD*%
%TO.C,R509*%
X105312500Y-111000000D03*
X103487500Y-111000000D03*
%TD*%
D16*
%TO.C,FB501*%
X104950000Y-123000000D03*
X103200000Y-123000000D03*
%TD*%
D19*
%TO.C,C407*%
X184737500Y-65600000D03*
X186462500Y-65600000D03*
%TD*%
D46*
%TO.C,C318*%
X145066377Y-85033623D03*
X146533623Y-83566377D03*
%TD*%
D22*
%TO.C,U405*%
X188400000Y-72050000D03*
X187600000Y-72050000D03*
X186800000Y-72050000D03*
X186000000Y-72050000D03*
X185200000Y-72050000D03*
X184400000Y-72050000D03*
X183600000Y-72050000D03*
X182800000Y-72050000D03*
X182000000Y-72050000D03*
X181200000Y-72050000D03*
X180400000Y-72050000D03*
X179600000Y-72050000D03*
X178800000Y-72050000D03*
X178000000Y-72050000D03*
X177200000Y-72050000D03*
X176400000Y-72050000D03*
X175600000Y-72050000D03*
X174800000Y-72050000D03*
X174000000Y-72050000D03*
X173200000Y-72050000D03*
X172400000Y-72050000D03*
X171600000Y-72050000D03*
X170800000Y-72050000D03*
X170000000Y-72050000D03*
X169200000Y-72050000D03*
X168400000Y-72050000D03*
X167600000Y-72050000D03*
X167600000Y-83550000D03*
X168400000Y-83550000D03*
X169200000Y-83550000D03*
X170000000Y-83550000D03*
X170800000Y-83550000D03*
X171600000Y-83550000D03*
X172400000Y-83550000D03*
X173200000Y-83550000D03*
X174000000Y-83550000D03*
X174800000Y-83550000D03*
X175600000Y-83550000D03*
X176400000Y-83550000D03*
X177200000Y-83550000D03*
X178000000Y-83550000D03*
X178800000Y-83550000D03*
X179600000Y-83550000D03*
X180400000Y-83550000D03*
X181200000Y-83550000D03*
X182000000Y-83550000D03*
X182800000Y-83550000D03*
X183600000Y-83550000D03*
X184400000Y-83550000D03*
X185200000Y-83550000D03*
X186000000Y-83550000D03*
X186800000Y-83550000D03*
X187600000Y-83550000D03*
X188400000Y-83550000D03*
%TD*%
D27*
%TO.C,R208*%
X136912500Y-63100000D03*
X135087500Y-63100000D03*
%TD*%
D12*
%TO.C,C436*%
X215600000Y-96637500D03*
X215600000Y-98362500D03*
%TD*%
D19*
%TO.C,C406*%
X209737500Y-85600000D03*
X211462500Y-85600000D03*
%TD*%
%TO.C,C402*%
X209737500Y-129700000D03*
X211462500Y-129700000D03*
%TD*%
D47*
%TO.C,R302*%
X144645235Y-119145235D03*
X143354765Y-117854765D03*
%TD*%
D35*
%TO.C,R527*%
X86087500Y-76000000D03*
X87912500Y-76000000D03*
%TD*%
D23*
%TO.C,R516*%
X97700000Y-128775000D03*
X97700000Y-130600000D03*
%TD*%
D19*
%TO.C,C418*%
X202937500Y-114100000D03*
X204662500Y-114100000D03*
%TD*%
D12*
%TO.C,C447*%
X165800000Y-63537500D03*
X165800000Y-65262500D03*
%TD*%
D48*
%TO.C,C315*%
X134100000Y-118500000D03*
X132880240Y-117280240D03*
%TD*%
D19*
%TO.C,C417*%
X177937500Y-114100000D03*
X179662500Y-114100000D03*
%TD*%
D11*
%TO.C,C431*%
X186462500Y-50000000D03*
X184737500Y-50000000D03*
%TD*%
%TO.C,C508*%
X87262500Y-130900000D03*
X85537500Y-130900000D03*
%TD*%
D40*
%TO.C,SW501*%
X221960000Y-68052857D03*
X221960000Y-59152857D03*
X225960000Y-59152857D03*
X225960000Y-68052857D03*
%TD*%
%TO.C,SW504*%
X221960000Y-111402857D03*
X221960000Y-120302857D03*
X225960000Y-111402857D03*
X225960000Y-120302857D03*
%TD*%
D29*
%TO.C,R519*%
X98600000Y-112712500D03*
X98600000Y-110887500D03*
%TD*%
D12*
%TO.C,C502*%
X105000000Y-91637500D03*
X105000000Y-93362500D03*
%TD*%
%TO.C,C435*%
X190200000Y-94300000D03*
X190200000Y-96025000D03*
%TD*%
D18*
%TO.C,C504*%
X102962500Y-121000000D03*
X105837500Y-121000000D03*
%TD*%
D12*
%TO.C,C439*%
X190200000Y-50137500D03*
X190200000Y-51862500D03*
%TD*%
D49*
%TO.C,U201*%
X148957000Y-61157000D03*
X148457000Y-61157000D03*
X147957000Y-61157000D03*
X147457000Y-61157000D03*
X146957000Y-61157000D03*
X146457000Y-61157000D03*
X145957000Y-61157000D03*
X145457000Y-61157000D03*
X144957000Y-61157000D03*
X144457000Y-61157000D03*
X143957000Y-61157000D03*
X143457000Y-61157000D03*
X142957000Y-61157000D03*
X142457000Y-61157000D03*
X141957000Y-61157000D03*
X141457000Y-61157000D03*
D50*
X139532000Y-63082000D03*
X139532000Y-63582000D03*
X139532000Y-64082000D03*
X139532000Y-64582000D03*
X139532000Y-65082000D03*
X139532000Y-65582000D03*
X139532000Y-66082000D03*
X139532000Y-66582000D03*
X139532000Y-67082000D03*
X139532000Y-67582000D03*
X139532000Y-68082000D03*
X139532000Y-68582000D03*
X139532000Y-69082000D03*
X139532000Y-69582000D03*
X139532000Y-70082000D03*
X139532000Y-70582000D03*
D49*
X141457000Y-72507000D03*
X141957000Y-72507000D03*
X142457000Y-72507000D03*
X142957000Y-72507000D03*
X143457000Y-72507000D03*
X143957000Y-72507000D03*
X144457000Y-72507000D03*
X144957000Y-72507000D03*
X145457000Y-72507000D03*
X145957000Y-72507000D03*
X146457000Y-72507000D03*
X146957000Y-72507000D03*
X147457000Y-72507000D03*
X147957000Y-72507000D03*
X148457000Y-72507000D03*
X148957000Y-72507000D03*
D50*
X150882000Y-70582000D03*
X150882000Y-70082000D03*
X150882000Y-69582000D03*
X150882000Y-69082000D03*
X150882000Y-68582000D03*
X150882000Y-68082000D03*
X150882000Y-67582000D03*
X150882000Y-67082000D03*
X150882000Y-66582000D03*
X150882000Y-66082000D03*
X150882000Y-65582000D03*
X150882000Y-65082000D03*
X150882000Y-64582000D03*
X150882000Y-64082000D03*
X150882000Y-63582000D03*
X150882000Y-63082000D03*
%TD*%
D37*
%TO.C,C313*%
X148384880Y-112478120D03*
X147165120Y-113697880D03*
%TD*%
D51*
%TO.C,C203*%
X156825000Y-55000000D03*
X158775000Y-55000000D03*
%TD*%
D52*
%TO.C,U301*%
X122436024Y-101861181D03*
X122789577Y-102214734D03*
X123143130Y-102568287D03*
X123496684Y-102921841D03*
X123850237Y-103275394D03*
X124203791Y-103628948D03*
X124557344Y-103982501D03*
X124910897Y-104336054D03*
X125264451Y-104689608D03*
X125618004Y-105043161D03*
X125971558Y-105396714D03*
X126325111Y-105750268D03*
X126678664Y-106103821D03*
X127032218Y-106457375D03*
X127385771Y-106810928D03*
X127739325Y-107164481D03*
X128092878Y-107518035D03*
X128446431Y-107871588D03*
X128799985Y-108225142D03*
X129153538Y-108578695D03*
X129507091Y-108932248D03*
X129860645Y-109285802D03*
X130214198Y-109639355D03*
X130567752Y-109992909D03*
X130921305Y-110346462D03*
X131274858Y-110700015D03*
X131628412Y-111053569D03*
X131981965Y-111407122D03*
X132335519Y-111760675D03*
X132689072Y-112114229D03*
X133042625Y-112467782D03*
X133396179Y-112821336D03*
X133749732Y-113174889D03*
X134103286Y-113528442D03*
X134456839Y-113881996D03*
X134810392Y-114235549D03*
X135163946Y-114589103D03*
X135517499Y-114942656D03*
X135871052Y-115296209D03*
X136224606Y-115649763D03*
X136578159Y-116003316D03*
X136931713Y-116356870D03*
X137285266Y-116710423D03*
X137638819Y-117063976D03*
D53*
X140361181Y-117063976D03*
X140714734Y-116710423D03*
X141068287Y-116356870D03*
X141421841Y-116003316D03*
X141775394Y-115649763D03*
X142128948Y-115296209D03*
X142482501Y-114942656D03*
X142836054Y-114589103D03*
X143189608Y-114235549D03*
X143543161Y-113881996D03*
X143896714Y-113528442D03*
X144250268Y-113174889D03*
X144603821Y-112821336D03*
X144957375Y-112467782D03*
X145310928Y-112114229D03*
X145664481Y-111760675D03*
X146018035Y-111407122D03*
X146371588Y-111053569D03*
X146725142Y-110700015D03*
X147078695Y-110346462D03*
X147432248Y-109992909D03*
X147785802Y-109639355D03*
X148139355Y-109285802D03*
X148492909Y-108932248D03*
X148846462Y-108578695D03*
X149200015Y-108225142D03*
X149553569Y-107871588D03*
X149907122Y-107518035D03*
X150260675Y-107164481D03*
X150614229Y-106810928D03*
X150967782Y-106457375D03*
X151321336Y-106103821D03*
X151674889Y-105750268D03*
X152028442Y-105396714D03*
X152381996Y-105043161D03*
X152735549Y-104689608D03*
X153089103Y-104336054D03*
X153442656Y-103982501D03*
X153796209Y-103628948D03*
X154149763Y-103275394D03*
X154503316Y-102921841D03*
X154856870Y-102568287D03*
X155210423Y-102214734D03*
X155563976Y-101861181D03*
D52*
X155563976Y-99138819D03*
X155210423Y-98785266D03*
X154856870Y-98431713D03*
X154503316Y-98078159D03*
X154149763Y-97724606D03*
X153796209Y-97371052D03*
X153442656Y-97017499D03*
X153089103Y-96663946D03*
X152735549Y-96310392D03*
X152381996Y-95956839D03*
X152028442Y-95603286D03*
X151674889Y-95249732D03*
X151321336Y-94896179D03*
X150967782Y-94542625D03*
X150614229Y-94189072D03*
X150260675Y-93835519D03*
X149907122Y-93481965D03*
X149553569Y-93128412D03*
X149200015Y-92774858D03*
X148846462Y-92421305D03*
X148492909Y-92067752D03*
X148139355Y-91714198D03*
X147785802Y-91360645D03*
X147432248Y-91007091D03*
X147078695Y-90653538D03*
X146725142Y-90299985D03*
X146371588Y-89946431D03*
X146018035Y-89592878D03*
X145664481Y-89239325D03*
X145310928Y-88885771D03*
X144957375Y-88532218D03*
X144603821Y-88178664D03*
X144250268Y-87825111D03*
X143896714Y-87471558D03*
X143543161Y-87118004D03*
X143189608Y-86764451D03*
X142836054Y-86410897D03*
X142482501Y-86057344D03*
X142128948Y-85703791D03*
X141775394Y-85350237D03*
X141421841Y-84996684D03*
X141068287Y-84643130D03*
X140714734Y-84289577D03*
X140361181Y-83936024D03*
D53*
X137638819Y-83936024D03*
X137285266Y-84289577D03*
X136931713Y-84643130D03*
X136578159Y-84996684D03*
X136224606Y-85350237D03*
X135871052Y-85703791D03*
X135517499Y-86057344D03*
X135163946Y-86410897D03*
X134810392Y-86764451D03*
X134456839Y-87118004D03*
X134103286Y-87471558D03*
X133749732Y-87825111D03*
X133396179Y-88178664D03*
X133042625Y-88532218D03*
X132689072Y-88885771D03*
X132335519Y-89239325D03*
X131981965Y-89592878D03*
X131628412Y-89946431D03*
X131274858Y-90299985D03*
X130921305Y-90653538D03*
X130567752Y-91007091D03*
X130214198Y-91360645D03*
X129860645Y-91714198D03*
X129507091Y-92067752D03*
X129153538Y-92421305D03*
X128799985Y-92774858D03*
X128446431Y-93128412D03*
X128092878Y-93481965D03*
X127739325Y-93835519D03*
X127385771Y-94189072D03*
X127032218Y-94542625D03*
X126678664Y-94896179D03*
X126325111Y-95249732D03*
X125971558Y-95603286D03*
X125618004Y-95956839D03*
X125264451Y-96310392D03*
X124910897Y-96663946D03*
X124557344Y-97017499D03*
X124203791Y-97371052D03*
X123850237Y-97724606D03*
X123496684Y-98078159D03*
X123143130Y-98431713D03*
X122789577Y-98785266D03*
X122436024Y-99138819D03*
%TD*%
D27*
%TO.C,R210*%
X136912500Y-69100000D03*
X135087500Y-69100000D03*
%TD*%
%TO.C,R511*%
X105312500Y-128900000D03*
X103487500Y-128900000D03*
%TD*%
D34*
%TO.C,C507*%
X93600000Y-121862500D03*
X93600000Y-120137500D03*
%TD*%
D29*
%TO.C,R517*%
X219360000Y-64427857D03*
X219360000Y-62602857D03*
%TD*%
D48*
%TO.C,C314*%
X126141380Y-109169880D03*
X124921620Y-107950120D03*
%TD*%
D35*
%TO.C,R202*%
X135087500Y-57300000D03*
X136912500Y-57300000D03*
%TD*%
D23*
%TO.C,R525*%
X221384000Y-50517500D03*
X221384000Y-52342500D03*
%TD*%
D29*
%TO.C,R305*%
X154500000Y-87725000D03*
X154500000Y-85900000D03*
%TD*%
D23*
%TO.C,R518*%
X95800000Y-110887500D03*
X95800000Y-112712500D03*
%TD*%
D19*
%TO.C,C303*%
X157637500Y-96300000D03*
X159362500Y-96300000D03*
%TD*%
D12*
%TO.C,C444*%
X190800000Y-107637500D03*
X190800000Y-109362500D03*
%TD*%
D19*
%TO.C,C404*%
X209737500Y-109700000D03*
X211462500Y-109700000D03*
%TD*%
D28*
%TO.C,C307*%
X144600000Y-116700000D03*
X145819760Y-117919760D03*
%TD*%
D29*
%TO.C,R505*%
X94800000Y-130600000D03*
X94800000Y-128775000D03*
%TD*%
D11*
%TO.C,C410*%
X204662500Y-129700000D03*
X202937500Y-129700000D03*
%TD*%
%TO.C,C412*%
X204662500Y-109700000D03*
X202937500Y-109700000D03*
%TD*%
D27*
%TO.C,R601*%
X104312500Y-47800000D03*
X102487500Y-47800000D03*
%TD*%
D37*
%TO.C,C320*%
X131400000Y-118700000D03*
X130180240Y-119919760D03*
%TD*%
D27*
%TO.C,R503*%
X105912500Y-96388000D03*
X104087500Y-96388000D03*
%TD*%
%TO.C,R528*%
X83712500Y-76000000D03*
X81887500Y-76000000D03*
%TD*%
D12*
%TO.C,C443*%
X165800000Y-107337500D03*
X165800000Y-109062500D03*
%TD*%
D54*
%TO.C,U501*%
X97800000Y-123200000D03*
X96500000Y-123200000D03*
X96500000Y-124500000D03*
X97800000Y-124500000D03*
D55*
X95212500Y-122600000D03*
X95212500Y-123100000D03*
X95212500Y-123600000D03*
X95212500Y-124100000D03*
X95212500Y-124600000D03*
X95212500Y-125100000D03*
D56*
X95900000Y-125787500D03*
X96400000Y-125787500D03*
X96900000Y-125787500D03*
X97400000Y-125787500D03*
X97900000Y-125787500D03*
X98400000Y-125787500D03*
D55*
X99087500Y-125100000D03*
X99087500Y-124600000D03*
X99087500Y-124100000D03*
X99087500Y-123600000D03*
X99087500Y-123100000D03*
X99087500Y-122600000D03*
D56*
X98400000Y-121912500D03*
X97900000Y-121912500D03*
X97400000Y-121912500D03*
X96900000Y-121912500D03*
X96400000Y-121912500D03*
X95900000Y-121912500D03*
%TD*%
D20*
%TO.C,C319*%
X124800000Y-114700000D03*
X126019760Y-113480240D03*
%TD*%
D27*
%TO.C,R504*%
X105312500Y-114000000D03*
X103487500Y-114000000D03*
%TD*%
D29*
%TO.C,R203*%
X153335000Y-66728500D03*
X153335000Y-64903500D03*
%TD*%
D22*
%TO.C,U404*%
X213400000Y-96150000D03*
X212600000Y-96150000D03*
X211800000Y-96150000D03*
X211000000Y-96150000D03*
X210200000Y-96150000D03*
X209400000Y-96150000D03*
X208600000Y-96150000D03*
X207800000Y-96150000D03*
X207000000Y-96150000D03*
X206200000Y-96150000D03*
X205400000Y-96150000D03*
X204600000Y-96150000D03*
X203800000Y-96150000D03*
X203000000Y-96150000D03*
X202200000Y-96150000D03*
X201400000Y-96150000D03*
X200600000Y-96150000D03*
X199800000Y-96150000D03*
X199000000Y-96150000D03*
X198200000Y-96150000D03*
X197400000Y-96150000D03*
X196600000Y-96150000D03*
X195800000Y-96150000D03*
X195000000Y-96150000D03*
X194200000Y-96150000D03*
X193400000Y-96150000D03*
X192600000Y-96150000D03*
X192600000Y-107650000D03*
X193400000Y-107650000D03*
X194200000Y-107650000D03*
X195000000Y-107650000D03*
X195800000Y-107650000D03*
X196600000Y-107650000D03*
X197400000Y-107650000D03*
X198200000Y-107650000D03*
X199000000Y-107650000D03*
X199800000Y-107650000D03*
X200600000Y-107650000D03*
X201400000Y-107650000D03*
X202200000Y-107650000D03*
X203000000Y-107650000D03*
X203800000Y-107650000D03*
X204600000Y-107650000D03*
X205400000Y-107650000D03*
X206200000Y-107650000D03*
X207000000Y-107650000D03*
X207800000Y-107650000D03*
X208600000Y-107650000D03*
X209400000Y-107650000D03*
X210200000Y-107650000D03*
X211000000Y-107650000D03*
X211800000Y-107650000D03*
X212600000Y-107650000D03*
X213400000Y-107650000D03*
%TD*%
D35*
%TO.C,R521*%
X80987500Y-130900000D03*
X82812500Y-130900000D03*
%TD*%
D27*
%TO.C,R514*%
X105312500Y-115500000D03*
X103487500Y-115500000D03*
%TD*%
D19*
%TO.C,C205*%
X156937500Y-58000000D03*
X158662500Y-58000000D03*
%TD*%
D22*
%TO.C,U408*%
X213400000Y-52050000D03*
X212600000Y-52050000D03*
X211800000Y-52050000D03*
X211000000Y-52050000D03*
X210200000Y-52050000D03*
X209400000Y-52050000D03*
X208600000Y-52050000D03*
X207800000Y-52050000D03*
X207000000Y-52050000D03*
X206200000Y-52050000D03*
X205400000Y-52050000D03*
X204600000Y-52050000D03*
X203800000Y-52050000D03*
X203000000Y-52050000D03*
X202200000Y-52050000D03*
X201400000Y-52050000D03*
X200600000Y-52050000D03*
X199800000Y-52050000D03*
X199000000Y-52050000D03*
X198200000Y-52050000D03*
X197400000Y-52050000D03*
X196600000Y-52050000D03*
X195800000Y-52050000D03*
X195000000Y-52050000D03*
X194200000Y-52050000D03*
X193400000Y-52050000D03*
X192600000Y-52050000D03*
X192600000Y-63550000D03*
X193400000Y-63550000D03*
X194200000Y-63550000D03*
X195000000Y-63550000D03*
X195800000Y-63550000D03*
X196600000Y-63550000D03*
X197400000Y-63550000D03*
X198200000Y-63550000D03*
X199000000Y-63550000D03*
X199800000Y-63550000D03*
X200600000Y-63550000D03*
X201400000Y-63550000D03*
X202200000Y-63550000D03*
X203000000Y-63550000D03*
X203800000Y-63550000D03*
X204600000Y-63550000D03*
X205400000Y-63550000D03*
X206200000Y-63550000D03*
X207000000Y-63550000D03*
X207800000Y-63550000D03*
X208600000Y-63550000D03*
X209400000Y-63550000D03*
X210200000Y-63550000D03*
X211000000Y-63550000D03*
X211800000Y-63550000D03*
X212600000Y-63550000D03*
X213400000Y-63550000D03*
%TD*%
D48*
%TO.C,C305*%
X121409880Y-96309880D03*
X120190120Y-95090120D03*
%TD*%
D40*
%TO.C,SW502*%
X221960000Y-76552857D03*
X221960000Y-85452857D03*
X225960000Y-85452857D03*
X225960000Y-76552857D03*
%TD*%
D22*
%TO.C,U401*%
X188400000Y-116150000D03*
X187600000Y-116150000D03*
X186800000Y-116150000D03*
X186000000Y-116150000D03*
X185200000Y-116150000D03*
X184400000Y-116150000D03*
X183600000Y-116150000D03*
X182800000Y-116150000D03*
X182000000Y-116150000D03*
X181200000Y-116150000D03*
X180400000Y-116150000D03*
X179600000Y-116150000D03*
X178800000Y-116150000D03*
X178000000Y-116150000D03*
X177200000Y-116150000D03*
X176400000Y-116150000D03*
X175600000Y-116150000D03*
X174800000Y-116150000D03*
X174000000Y-116150000D03*
X173200000Y-116150000D03*
X172400000Y-116150000D03*
X171600000Y-116150000D03*
X170800000Y-116150000D03*
X170000000Y-116150000D03*
X169200000Y-116150000D03*
X168400000Y-116150000D03*
X167600000Y-116150000D03*
X167600000Y-127650000D03*
X168400000Y-127650000D03*
X169200000Y-127650000D03*
X170000000Y-127650000D03*
X170800000Y-127650000D03*
X171600000Y-127650000D03*
X172400000Y-127650000D03*
X173200000Y-127650000D03*
X174000000Y-127650000D03*
X174800000Y-127650000D03*
X175600000Y-127650000D03*
X176400000Y-127650000D03*
X177200000Y-127650000D03*
X178000000Y-127650000D03*
X178800000Y-127650000D03*
X179600000Y-127650000D03*
X180400000Y-127650000D03*
X181200000Y-127650000D03*
X182000000Y-127650000D03*
X182800000Y-127650000D03*
X183600000Y-127650000D03*
X184400000Y-127650000D03*
X185200000Y-127650000D03*
X186000000Y-127650000D03*
X186800000Y-127650000D03*
X187600000Y-127650000D03*
X188400000Y-127650000D03*
%TD*%
D27*
%TO.C,R501*%
X105912500Y-102000000D03*
X104087500Y-102000000D03*
%TD*%
D11*
%TO.C,C409*%
X179662500Y-129700000D03*
X177937500Y-129700000D03*
%TD*%
D21*
%TO.C,R304*%
X130354765Y-114854765D03*
X131645235Y-116145235D03*
%TD*%
D12*
%TO.C,C433*%
X190200000Y-114237500D03*
X190200000Y-115962500D03*
%TD*%
D27*
%TO.C,R209*%
X136912500Y-66100000D03*
X135087500Y-66100000D03*
%TD*%
D22*
%TO.C,U407*%
X188400000Y-52050000D03*
X187600000Y-52050000D03*
X186800000Y-52050000D03*
X186000000Y-52050000D03*
X185200000Y-52050000D03*
X184400000Y-52050000D03*
X183600000Y-52050000D03*
X182800000Y-52050000D03*
X182000000Y-52050000D03*
X181200000Y-52050000D03*
X180400000Y-52050000D03*
X179600000Y-52050000D03*
X178800000Y-52050000D03*
X178000000Y-52050000D03*
X177200000Y-52050000D03*
X176400000Y-52050000D03*
X175600000Y-52050000D03*
X174800000Y-52050000D03*
X174000000Y-52050000D03*
X173200000Y-52050000D03*
X172400000Y-52050000D03*
X171600000Y-52050000D03*
X170800000Y-52050000D03*
X170000000Y-52050000D03*
X169200000Y-52050000D03*
X168400000Y-52050000D03*
X167600000Y-52050000D03*
X167600000Y-63550000D03*
X168400000Y-63550000D03*
X169200000Y-63550000D03*
X170000000Y-63550000D03*
X170800000Y-63550000D03*
X171600000Y-63550000D03*
X172400000Y-63550000D03*
X173200000Y-63550000D03*
X174000000Y-63550000D03*
X174800000Y-63550000D03*
X175600000Y-63550000D03*
X176400000Y-63550000D03*
X177200000Y-63550000D03*
X178000000Y-63550000D03*
X178800000Y-63550000D03*
X179600000Y-63550000D03*
X180400000Y-63550000D03*
X181200000Y-63550000D03*
X182000000Y-63550000D03*
X182800000Y-63550000D03*
X183600000Y-63550000D03*
X184400000Y-63550000D03*
X185200000Y-63550000D03*
X186000000Y-63550000D03*
X186800000Y-63550000D03*
X187600000Y-63550000D03*
X188400000Y-63550000D03*
%TD*%
D11*
%TO.C,C425*%
X186462500Y-114100000D03*
X184737500Y-114100000D03*
%TD*%
D19*
%TO.C,C505*%
X103537500Y-119200000D03*
X105262500Y-119200000D03*
%TD*%
D29*
%TO.C,R526*%
X139600000Y-54800000D03*
X139600000Y-52975000D03*
%TD*%
M02*
